<svg xmlns="http://www.w3.org/2000/svg" xmlns:xlink="http://www.w3.org/1999/xlink" version="1.2" baseProfile="tiny" x="0px" y="0px" viewBox="0 0 100 125" xml:space="preserve"><path d="M91.1,13.8c0-0.5-0.4-1-0.9-1.1L50.4,0.8c-0.2-0.1-0.5-0.1-0.7,0L9.8,12.6c-0.5,0.1-0.9,0.6-0.9,1.1  c0,0.2-1.1,17.6,3.4,36.7C18.1,76,31.1,92.8,49.6,99.2c0.1,0,0.3,0.1,0.4,0.1c0.1,0,0.3,0,0.4-0.1C68.9,92.8,81.9,76,87.8,50.5  C92.2,31.4,91.1,13.9,91.1,13.8z M60.5,34.8l10.6-10.6c0.5-0.5,1.3-0.5,1.8,0s0.5,1.3,0,1.8L62.2,36.5c-0.2,0.2-0.6,0.4-0.9,0.4  c-0.3,0-0.6-0.1-0.9-0.4C60,36,60,35.2,60.5,34.8z M64.9,42.1c-0.4,0-0.9-0.3-1.1-0.8c-0.3-0.6,0-1.4,0.7-1.6l5.9-2.5  c0.6-0.3,1.4,0,1.6,0.7c0.3,0.6,0,1.4-0.7,1.6L65.4,42C65.2,42.1,65,42.1,64.9,42.1z M65.4,52l5.9,2.5c0.6,0.3,0.9,1,0.7,1.6  c-0.2,0.5-0.7,0.8-1.2,0.8c-0.2,0-0.3,0-0.5-0.1l-5.9-2.5c-0.6-0.3-0.9-1-0.7-1.6C64,52,64.8,51.7,65.4,52z M62,47  c0,6.6-5.4,12-12,12c-6.6,0-12-5.4-12-12s5.4-12,12-12C56.7,35,62,40.4,62,47z M55,31.7l2.5-5.9c0.3-0.6,1-0.9,1.6-0.7  c0.6,0.3,0.9,1,0.7,1.6l-2.5,5.9c-0.2,0.5-0.7,0.8-1.2,0.8c-0.2,0-0.3,0-0.5-0.1C55,33,54.8,32.3,55,31.7z M48.8,21.3  c0-0.7,0.6-1.2,1.2-1.2c0.6,0,1.2,0.6,1.2,1.2v9.6c0,0.7-0.6,1.2-1.2,1.2c-0.6,0-1.2-0.6-1.2-1.2V21.3z M41,25.1  c0.6-0.3,1.4,0,1.6,0.7l2.5,5.9c0.3,0.6,0,1.4-0.7,1.6c-0.2,0.1-0.3,0.1-0.5,0.1c-0.5,0-1-0.3-1.2-0.8l-2.5-5.9  C40,26.1,40.3,25.3,41,25.1z M27.2,24.1c0.5-0.5,1.3-0.5,1.8,0l10.6,10.6c0.5,0.5,0.5,1.3,0,1.8c-0.2,0.2-0.6,0.4-0.9,0.4  c-0.3,0-0.6-0.1-0.9-0.4L27.2,25.9C26.8,25.4,26.8,24.6,27.2,24.1z M36.3,41.3c-0.2,0.5-0.7,0.8-1.2,0.8c-0.2,0-0.3,0-0.5-0.1  l-5.9-2.5c-0.6-0.3-0.9-1-0.7-1.6c0.3-0.6,1-0.9,1.6-0.7l5.9,2.5C36.3,40,36.7,40.7,36.3,41.3z M35.7,54.3l-5.9,2.5  c-0.2,0.1-0.3,0.1-0.5,0.1c-0.5,0-1-0.3-1.2-0.8c-0.3-0.6,0-1.4,0.7-1.6l5.9-2.5c0.6-0.3,1.4,0,1.6,0.7C36.7,53.3,36.3,54,35.7,54.3  z M23,47c0-0.7,0.6-1.2,1.2-1.2h9.6c0.7,0,1.2,0.6,1.2,1.2s-0.6,1.2-1.2,1.2h-9.6C23.7,48.2,23,47.7,23,47z M39.5,59.2L29,69.9  c-0.2,0.2-0.6,0.4-0.9,0.4s-0.6-0.1-0.9-0.4c-0.5-0.5-0.5-1.3,0-1.8l10.6-10.6c0.5-0.5,1.3-0.5,1.8,0S40,58.8,39.5,59.2z M45,62.3  l-2.5,5.9c-0.2,0.5-0.7,0.8-1.2,0.8c-0.2,0-0.3,0-0.5-0.1c-0.6-0.3-0.9-1-0.7-1.6l2.5-5.9c0.3-0.6,1-0.9,1.6-0.7  C45,61,45.3,61.7,45,62.3z M51.2,72.7c0,0.7-0.6,1.2-1.2,1.2c-0.6,0-1.2-0.6-1.2-1.2v-9.6c0-0.7,0.6-1.2,1.2-1.2  c0.6,0,1.2,0.6,1.2,1.2V72.7z M59.2,68.9C59,69,58.8,69,58.7,69c-0.5,0-1-0.3-1.2-0.8L55,62.3c-0.3-0.6,0-1.4,0.7-1.6  c0.6-0.3,1.4,0,1.6,0.7l2.5,5.9C60,67.9,59.8,68.7,59.2,68.9z M73,69.9c-0.2,0.2-0.6,0.4-0.9,0.4c-0.3,0-0.6-0.1-0.9-0.4L60.5,59.2  c-0.5-0.5-0.5-1.3,0-1.8s1.3-0.5,1.8,0L73,68C73.4,68.6,73.4,69.4,73,69.9z M75.8,48.2h-9.6c-0.7,0-1.2-0.6-1.2-1.2s0.6-1.2,1.2-1.2  h9.6c0.7,0,1.2,0.6,1.2,1.2S76.5,48.2,75.8,48.2z"/><text x="0" y="115" fill="#000000" font-size="5px" font-weight="bold" font-family="'Helvetica Neue', Helvetica, Arial-Unicode, Arial, Sans-serif">Created by Juraj Sedlák</text><text x="0" y="120" fill="#000000" font-size="5px" font-weight="bold" font-family="'Helvetica Neue', Helvetica, Arial-Unicode, Arial, Sans-serif">from the Noun Project</text></svg>