<svg xmlns="http://www.w3.org/2000/svg" xmlns:xlink="http://www.w3.org/1999/xlink" version="1.1" x="0px" y="0px" viewBox="0 0 100 125" style="enable-background:new 0 0 100 100;" xml:space="preserve"><path d="M80.9,66.9c-4,0-7.5,1.6-10.1,4.3L33,52.2c0.1-0.7,0.2-1.5,0.2-2.2s-0.1-1.5-0.2-2.2l37.9-18.9  c2.6,2.6,6.1,4.3,10.1,4.3c7.8,0,14.1-6.3,14.1-14.1S88.7,5,80.9,5s-14.1,6.3-14.1,14.1c0,0.8,0.1,1.5,0.2,2.2L29.2,40.2  c-2.6-2.6-6.1-4.3-10.1-4.3C11.3,35.9,5,42.2,5,50s6.3,14.1,14.1,14.1c4,0,7.6-1.6,10.1-4.3L67,78.7c-0.1,0.7-0.2,1.5-0.2,2.2  c0,7.8,6.3,14.1,14.1,14.1S95,88.7,95,80.9S88.7,66.9,80.9,66.9z"/><text x="0" y="115" fill="#000000" font-size="5px" font-weight="bold" font-family="'Helvetica Neue', Helvetica, Arial-Unicode, Arial, Sans-serif">Created by Yoshi</text><text x="0" y="120" fill="#000000" font-size="5px" font-weight="bold" font-family="'Helvetica Neue', Helvetica, Arial-Unicode, Arial, Sans-serif">from the Noun Project</text></svg>