<svg xmlns="http://www.w3.org/2000/svg" xmlns:xlink="http://www.w3.org/1999/xlink" version="1.1" x="0px" y="0px" viewBox="0 0 100 125" enable-background="new 0 0 100 100" xml:space="preserve"><path fill="#000000" d="M47.996,45.663l-4.567,20.95l6.21,6.984C27.023,66.385,9.297,94.461,9.297,94.461  c32.817,1.287,40.881-11.206,42.852-16.912C54.119,83.255,62.183,95.747,95,94.461c0,0-16.823-26.655-38.602-21.363l5.741-6.485  l-9.334,5.272l-5.225-5.432l5.859-20.79 M65.851,47.681c3.278,0,5.935,1.589,5.935,3.549s-2.657,3.549-5.935,3.549  c-3.278,0-5.935-1.589-5.935-3.549S62.573,47.681,65.851,47.681z M37.719,57.477c0,0-10.24,10.578-12.263-6.09  C25.457,51.387,30.134,60.065,37.719,57.477z M35.165,54.779c-3.278,0-5.935-1.589-5.935-3.549s2.657-3.549,5.935-3.549  S41.1,49.27,41.1,51.23S38.443,54.779,35.165,54.779z M93.637,38.367c0,2.861-18.575,5.181-41.489,5.181s-41.489-2.32-41.489-5.181  c0-1.536,5.356-2.915,13.858-3.864V23.43v0v-1.092l0.054,0.037C25.125,12.743,33.153,5.03,42.917,5.03h18.557  c9.766,0,17.795,7.717,18.346,17.351l0.053-0.044v1.092v0v11.083C88.321,35.461,93.637,36.836,93.637,38.367z"/><text x="0" y="115" fill="#000000" font-size="5px" font-weight="bold" font-family="'Helvetica Neue', Helvetica, Arial-Unicode, Arial, Sans-serif">Created by Christine M Winn</text><text x="0" y="120" fill="#000000" font-size="5px" font-weight="bold" font-family="'Helvetica Neue', Helvetica, Arial-Unicode, Arial, Sans-serif">from the Noun Project</text></svg>